{"title":"Shameless UK S08E15 HDTV XViD DTRG","uid":6644563,"size":564585710,"categoryP":"video","categoryS":"tv_shows","magnet":"?xt=urn:btih:e6d6bd83220b75b420f9d899d6f71cc2f7e6e698&amp;dn=Shameless+UK+S08E15+HDTV+XViD+DTRG&amp;tr=udp%3A%2F%2Ftracker.openbittorrent.com%3A80&amp;tr=udp%3A%2F%2Fopen.demonii.com%3A1337&amp;tr=udp%3A%2F%2Ftracker.coppersurfer.tk%3A6969&amp;tr=udp%3A%2F%2Fexodus.desync.com%3A6969","seeders":0,"leechers":0,"uploader":"SAFCukO09","files":2,"time":1314896420,"description":"Format : AVI\nFormat/Info : Audio Video Interleave\nFile size : 538 MiB\nDuration : 46mn 23s\nOverall bit rate : 1 623 Kbps\nWriting library : VirtualDub build 32842/release\n\nVideo\nID : 0\nFormat : MPEG-4 Visual\nFormat profile : Advanced Simple@L5\nFormat settings, BVOP : 2\nFormat settings, QPel : No\nFormat settings, GMC : No warppoints\nFormat settings, Matrix : Default (H.263)\nMuxing mode : Packed bitstream\nCodec ID : XVID\nCodec ID/Hint : XviD\nDuration : 46mn 23s\nBit rate : 1 485 Kbps\nWidth : 624 pixels\nHeight : 352 pixels\nDisplay aspect ratio : 16:9\nFrame rate : 25.000 fps\nColor space : YUV\nChroma subsampling : 4:2:0\nBit depth : 8 bits\nScan type : Progressive\nCompression mode : Lossy\nBits/(Pixel*Frame) : 0.270\nStream size : 493 MiB (92%)\nWriting library : XviD 64\n\nAudio\nID : 1\nFormat : MPEG Audio\nFormat version : Version 1\nFormat profile : Layer 3\nCodec ID : 55\nCodec ID/Hint : MP3\nDuration : 46mn 22s\nBit rate mode : Constant\nBit rate : 128 Kbps\nChannel(s) : 2 channels\nSampling rate : 48.0 KHz\nCompression mode : Lossy\nStream size : 42.5 MiB (8%)\nAlignment : Split accross interleaves\nInterleave, duration : 40 ms (1.00 video frame)\nInterleave, preload duration : 500 ms\n\n\n\n\nAvril is busy keeping secrets from her family; with no job and no money, but always a gift to hand, something doesn't quite add up.\n\nMimi has designs on fit jogger Neil, but he's unsure of her advances - because he only wants sex. Mimi is keen to spice up her sex life, but Karen raises concerns about Neil's calorific role-play.\n\nWhen 12-year-old Bean tries to shoplift, Chesney phones her dad, Gorky, who is Chesney's delivery driver, but Chesney soon becomes concerned for Bean's welfare and decides to try and rescue her.\n\nAnd the law finally catches up with Avril when a bailiff arrives; she breaks down and confesses leaving Jackson gobsmacked. Will he and Letitia promise to support her and help pay back all the money she owes?\n","torrent":{"xt":"urn:btih:e6d6bd83220b75b420f9d899d6f71cc2f7e6e698","amp;dn":"Shameless+UK+S08E15+HDTV+XViD+DTRG","amp;tr":["udp%3A%2F%2Ftracker.openbittorrent.com%3A80","udp%3A%2F%2Fopen.demonii.com%3A1337","udp%3A%2F%2Ftracker.coppersurfer.tk%3A6969","udp%3A%2F%2Fexodus.desync.com%3A6969"],"infoHash":"e6d6bd83220b75b420f9d899d6f71cc2f7e6e698","infoHashBuffer":{"type":"Buffer","data":[230,214,189,131,34,11,117,180,32,249,216,153,214,247,28,194,247,230,230,152]},"announce":[],"urlList":[]}}